<svg xmlns="http://www.w3.org/2000/svg" xmlns:xlink="http://www.w3.org/1999/xlink" width="350" height="66" version="1.1" viewBox="0 0 350 66"><title>Horizontal</title><desc>Created with Sketch.</desc><defs><path id="path-1" d="M55.8666667,41.25 C64.4268817,50.85 73.137276,55.65 83.3494624,55.65 C100.019355,55.65 112.183871,43.95 112.183871,27.9 C112.183871,11.85 100.019355,0 83.3494624,0 C73.7379928,0 64.8774194,5.4 56.3172043,14.85 C47.9071685,5.25 38.8964158,0 28.8344086,0 C12.1645161,0 -2.84217094e-14,11.85 -2.84217094e-14,27.9 C-2.84217094e-14,43.95 12.1645161,55.65 28.8344086,55.65 C39.046595,55.65 47.0060932,50.85 55.8666667,41.25 Z"/><mask id="mask-2" width="122.184" height="65.65" x="-5" y="-5" maskContentUnits="userSpaceOnUse" maskUnits="objectBoundingBox"><rect width="122.184" height="65.65" x="-5" y="-5" fill="#fff"/><use fill="#000" xlink:href="#path-1"/></mask></defs><g id="Main" fill="none" fill-rule="evenodd" stroke="none" stroke-width="1"><g id="Superset" transform="translate(-319.000000, -195.000000)"><g id="Horizontal" transform="translate(324.000000, 200.000000)"><g id="Group-3"><text id="Superset" fill="#484848" font-family="Roboto-Black, Roboto" font-size="50" font-weight="700" letter-spacing=".67"><tspan x="137" y="46">Superse</tspan> <tspan x="328.336" y="46">t</tspan></text><g id="Group-10-Copy-8"><g id="WORK-SPACE"><path id="∞-copy-2" fill="#484848" d="M55.8666667,41.25 C64.4268817,50.85 73.137276,55.65 83.3494624,55.65 C100.019355,55.65 112.183871,43.95 112.183871,27.9 C112.183871,11.85 100.019355,0 83.3494624,0 C73.7379928,0 64.8774194,5.4 56.3172043,14.85 C47.9071685,5.25 38.8964158,0 28.8344086,0 C12.1645161,0 -2.84217094e-14,11.85 -2.84217094e-14,27.9 C-2.84217094e-14,43.95 12.1645161,55.65 28.8344086,55.65 C39.046595,55.65 47.0060932,50.85 55.8666667,41.25 Z"/><path id="Path" fill="#00D1C1" d="M35.3031737,7.82736301 L54.6231734,7.82736301 C54.6231734,7.82736301 54.1382597,11.9130391 54.1201021,16.2068622 C54.1019446,20.5006853 53.079701,24.1223631 53.079701,24.1223631 L35.3031737,24.1223631 L35.3031737,7.82736301 Z" transform="translate(44.963174, 15.974863) rotate(-50.000000) translate(-44.963174, -15.974863)"/><rect id="Path-Copy" width="19.32" height="16.295" x="57.859" y="31.983" fill="#00D1C1" transform="translate(67.518574, 40.130521) rotate(-50.000000) translate(-67.518574, -40.130521)"/><path id="Path" fill="#FFF" d="M29.134767,17.1 C35.1419355,17.1 39.9476703,21.9 45.2039427,28.35 C40.2480287,34.35 34.9917563,38.85 29.134767,38.85 C22.0763441,38.85 17.8713262,34.2 17.8713262,28.05 C17.8713262,21.9 22.0763441,17.1 29.134767,17.1 Z"/><path id="Path" fill="#FFF" d="M83.0491039,38.85 C77.1921147,38.85 72.2362007,34.2 66.9799283,28.05 C72.3863799,21.6 77.0419355,17.1 83.0491039,17.1 C90.1075269,17.1 94.3125448,21.9 94.3125448,28.05 C94.3125448,34.2 90.1075269,38.85 83.0491039,38.85 Z"/></g><use id="∞-copy-2" stroke="#FFF" stroke-width="10" mask="url(#mask-2)" xlink:href="#path-1"/></g></g></g></g></g></svg>